<svg xmlns="http://www.w3.org/2000/svg" version="1.1" xmlns:xlink="http://www.w3.org/1999/xlink" xmlns:svgjs="http://svgjs.dev/svgjs" width="100%" height="100%" viewBox="0 0 1000 600"><rect width="1000" height="600" x="0" y="0" fill="#aa96da"/><g><rect width="333.3333333333333" height="333.3333333333333" rx="13.333333333333334" ry="13.333333333333334" y="262.77927602276736" fill="#C5FAD" transform="matrix(0.5196272426794071,0,0,0.5196272426794071,0,76.84819153717542)" x="240.55717468261716"/><path d="M318.3538909254423 504.44591135202825L318.3538909254423 504.44591135202825Q304.39632889187385 504.44591135202825 294.8479548647255 497.8759292232565Q285.29958083757725 491.30594709448474 280.3939941814277 480.32677695929283Q275.4592076047058 469.3184069035286 275.4592076047058 456.29524232827436L275.4592076047058 456.29524232827436Q275.4592076047058 442.1332808506997 280.7443932282955 430.97891119207384Q286.0295788518852 419.85374145402034 296.1911512110522 413.3713590869655Q306.3527235702192 406.91817664048307 321.1278833798126 406.91817664048307L321.1278833798126 406.91817664048307Q337.45063897973887 406.91817664048307 349.5686060172512 416.3497509853421L349.5686060172512 416.3497509853421Q350.50300347556544 417.07974899965006 350.99940212529486 417.07974899965006L350.99940212529486 417.07974899965006Q351.64180037788583 417.07974899965006 351.7294001396028 416.3497509853421Q351.84619982189207 415.6489528916064 351.84619982189207 415.3277537653109L351.84619982189207 415.3277537653109Q351.84619982189207 405.6917799764457 351.8753997424644 396.1434059492974Q351.9337995836091 386.59503192214913 352.0505992658983 376.92985821271157L352.0505992658983 376.92985821271157Q352.13819902761526 372.4330704445744 352.0505992658983 367.76108315300337Q351.9337995836091 363.0890958614324 352.25499870990456 358.6799078550122L352.25499870990456 358.6799078550122Q352.54699791562774 354.44591937202597 356.45978727231847 354.44591937202597L356.45978727231847 354.44591937202597L372.46134374594925 354.44591937202597Q376.66613230836316 354.44591937202597 376.66613230836316 358.7675076167292L376.66613230836316 358.7675076167292Q376.66613230836316 364.4030922871867 376.52013270550157 370.009477037072Q376.37413310264 375.61586178695717 376.2573334203507 381.2514464574147L376.2573334203507 381.2514464574147Q375.9653342146275 404.75738251813146 375.9653342146275 428.46771802285446L375.9653342146275 428.46771802285446Q375.9653342146275 452.0904537658604 376.2573334203507 475.68398958829414L376.2573334203507 475.68398958829414Q376.37413310264 481.348774179324 376.52013270550157 486.92595900863694Q376.66613230836316 492.5323437585222 376.66613230836316 498.16792842897974L376.66613230836316 498.16792842897974Q376.66613230836316 502.4895166736829 372.46134374594925 502.4895166736829L372.46134374594925 502.4895166736829L356.2553878283122 502.4895166736829Q352.4593981539108 502.4895166736829 352.28419863047685 499.62792445759567Q352.13819902761526 496.7371323209361 352.0505992658983 494.079939548855L352.0505992658983 494.079939548855Q352.0505992658983 493.7587404225595 351.9337995836091 493.08714224939615Q351.84619982189207 492.4155440762329 351.32060125159035 492.4155440762329L351.32060125159035 492.4155440762329Q350.7950026812886 492.4155440762329 349.8898051435467 493.14554209054086L349.8898051435467 493.14554209054086Q342.9986238884795 498.5767273169921 335.085445413381 501.5259192947964Q327.20146685885493 504.44591135202825 318.3538909254423 504.44591135202825ZM325.85827051252824 481.75757306733647L325.85827051252824 481.75757306733647Q334.8810459693748 481.75757306733647 341.7722272244421 477.6403842666395Q348.6634084795093 473.55239538651483 351.84619982189207 464.8216191353915L351.84619982189207 464.8216191353915Q351.7294001396028 461.23002890499623 351.7294001396028 457.726038436318Q351.7294001396028 454.25124788821205 351.7294001396028 450.74725741953375L351.7294001396028 450.74725741953375Q351.7294001396028 449.11206186748393 351.84619982189207 447.1556671891385Q351.9337995836091 445.19927251079315 351.7294001396028 443.68087664103257L351.7294001396028 443.68087664103257Q351.64180037788583 442.5420797387121 350.5906032372824 440.70248474265605Q349.5686060172512 438.83368982602764 349.0722073675218 437.9284922882857L349.0722073675218 437.9284922882857Q345.2762176931203 432.17610793553894 338.93983492892716 429.343715640024Q332.63265208530623 426.51132334450904 325.85827051252824 426.51132334450904L325.85827051252824 426.51132334450904Q318.0618917197191 426.51132334450904 312.25110752582765 430.42411270119976Q306.4695232525085 434.33690205789054 303.31593183069805 440.70248474265605Q300.19154032945994 447.06806742742157 300.19154032945994 454.54324709393524L300.19154032945994 454.54324709393524Q300.19154032945994 461.6388277930087 303.5203312747043 467.82921095434034Q306.87832214052094 474.04879403624426 312.7183062549847 477.90318355179033Q318.5582903694485 481.75757306733647 325.85827051252824 481.75757306733647ZM395.879680044949 374.3602652023475L395.879680044949 374.3602652023475Q395.879680044949 368.72468053188993 400.0844686073629 364.6658915723376Q404.2892571697768 360.60710261278524 409.9248418402344 360.60710261278524L409.9248418402344 360.60710261278524Q415.6772261929812 360.60710261278524 420.0572142788291 364.7826912546269Q424.4080024441046 368.9290799758961 424.4080024441046 374.79826401093226L424.4080024441046 374.79826401093226Q424.4080024441046 380.4338486813898 420.2616137228353 384.5802374026591Q416.0860250809937 388.7558260445007 410.33364072824685 388.7558260445007L410.33364072824685 388.7558260445007Q404.4936566137831 388.7558260445007 400.1720683690799 384.4926376409421Q395.879680044949 380.2294492373836 395.879680044949 374.3602652023475ZM397.39807591470964 436.2640968156636L397.39807591470964 436.2640968156636L397.39807591470964 413.57575853097177Q397.39807591470964 409.37096996855786 401.63206439769584 409.37096996855786L401.63206439769584 409.37096996855786L417.4292214273204 409.37096996855786Q421.63400998973435 409.37096996855786 421.63400998973435 413.57575853097177L421.63400998973435 413.57575853097177Q421.63400998973435 434.74570094590297 421.75080967202354 455.9448432814065Q421.83840943374054 477.1439856169101 421.83840943374054 498.2847281112689L421.83840943374054 498.2847281112689Q421.83840943374054 502.4895166736829 417.6336208713266 502.4895166736829L417.6336208713266 502.4895166736829L401.4276649536896 502.4895166736829Q397.19367647070334 502.4895166736829 397.19367647070334 498.2847281112689L397.19367647070334 498.2847281112689Q397.19367647070334 482.7795702873676 397.31047615299263 467.27441246346626Q397.39807591470964 451.7692546395649 397.39807591470964 436.2640968156636ZM534.7545022868978 502.4895166736829L520.7093404916125 502.4895166736829Q517.1177502612172 502.4895166736829 516.5045519291984 498.7811267609984L516.5045519291984 498.7811267609984Q516.1833528029031 496.7371323209361 515.9205535177521 494.6347380397291Q515.6577542326013 492.5323437585222 515.4533547885951 490.48834931845977L515.4533547885951 490.48834931845977Q515.4533547885951 490.1671501921643 515.2489553445887 489.407952257284Q515.0445559005825 488.6195544018314 514.5481572508531 488.6195544018314L514.5481572508531 488.6195544018314Q514.1393583628408 488.6195544018314 513.6721596336836 489.0867531309885Q513.2049609045264 489.5539518601456 513.0005614605202 489.8751509864411L513.0005614605202 489.8751509864411Q506.2261798877422 497.67152977925025 496.5318062577323 501.05872056563925Q486.8374326277224 504.44591135202825 476.6758602685555 504.44591135202825L476.6758602685555 504.44591135202825Q468.35388290544455 504.44591135202825 460.58670403320775 501.5259192947964Q452.84872508154325 498.5767273169921 447.85553866367667 492.5323437585222Q442.8915521663825 486.4879602000521 442.8915521663825 477.1439856169101L442.8915521663825 477.1439856169101Q442.8915521663825 465.23041802340396 443.0375517692441 453.2584505887532Q443.1835513721057 441.3156830746748 443.1835513721057 429.4897152428856L443.1835513721057 429.4897152428856L443.1835513721057 413.57575853097177Q443.1835513721057 409.37096996855786 447.4175398550919 409.37096996855786L447.4175398550919 409.37096996855786L463.2146968847165 409.37096996855786Q467.41948544713034 409.37096996855786 467.41948544713034 413.57575853097177L467.41948544713034 413.57575853097177L467.41948544713034 429.6941146868918Q467.41948544713034 439.35928839632936 467.3318856854134 449.11206186748393Q467.2150860031241 458.8648353386384 467.3318856854134 468.61760880979296L467.3318856854134 468.61760880979296Q467.53628512941964 476.7351867288976 472.61707130900317 480.06397767414194Q477.69785748858664 483.3927686193863 485.0854373933833 483.3927686193863L485.0854373933833 483.3927686193863Q494.3126122942361 483.3927686193863 500.79499466129084 478.4579820426644Q507.2481771077734 473.55239538651483 510.693767735307 465.785216514278Q514.1393583628408 458.0472375626135 514.1393583628408 449.6084605172133L514.1393583628408 449.6084605172133L514.1393583628408 413.57575853097177Q514.1393583628408 409.37096996855786 518.3441469252546 409.37096996855786L518.3441469252546 409.37096996855786L534.053704193162 409.37096996855786Q538.2584927555761 409.37096996855786 538.2584927555761 413.57575853097177L538.2584927555761 413.57575853097177Q538.2584927555761 418.0141464579643 538.2000929144315 422.4233344643844Q538.1416930732869 426.8325224708046 538.1416930732869 431.24171047722473L538.1416930732869 431.24171047722473Q538.1416930732869 442.5420797387121 538.3168925967207 453.9300487619165Q538.4628921995823 465.3180177851209 538.5504919612993 476.6183870466083L538.5504919612993 476.6183870466083Q538.6672916435884 481.96197251134265 538.8132912464503 487.33475789664936Q538.988490769884 492.7367432025284 538.988490769884 498.16792842897974L538.988490769884 498.16792842897974Q538.988490769884 502.4895166736829 534.7545022868978 502.4895166736829L534.7545022868978 502.4895166736829Z " fill="#aa96da" transform="matrix(0.5196272426794071,0,0,0.5196272426794071,0,76.84819153717542)"/><path d="M731.0460054464019 436.66225434628063L731.0460054464019 436.66225434628063Q732.6717519955815 436.66225434628063 733.5675715226806 437.723966378398Q734.430212548776 438.7856784105154 735.027425566842 440.0464614486548L735.027425566842 440.0464614486548Q735.4919245808934 440.97545947675746 736.8854216230474 444.5919160861573Q738.2789186652014 448.20837269555705 739.5065232023372 451.7252938019459Q740.7341277394729 455.209036407331 740.7341277394729 455.905784928408L740.7341277394729 455.905784928408Q740.7341277394729 458.49370800669413 736.7195291180291 460.35170406289956Q732.6717519955815 462.2097001191049 727.0977638269654 463.3709476542333Q721.4905971573455 464.56537369036533 716.4806435057916 465.0630512054204Q711.4706898542378 465.59390722147907 709.347265790003 465.59390722147907L709.347265790003 465.59390722147907Q684.7619965462851 465.59390722147907 670.992918629763 451.02854528086885Q657.2238407132407 436.430004839255 657.2238407132407 412.1765206055738L657.2238407132407 412.1765206055738Q657.2238407132407 395.9522336147802 663.5609344049413 383.0126182233497Q669.9312065976457 370.0730028319192 681.9418239609735 362.4751261020793Q693.9524413243012 354.910427873243 710.7739413331608 354.910427873243L710.7739413331608 354.910427873243Q717.2769275298797 354.910427873243 724.8748042597196 356.3702819174044Q732.439502488556 357.83013596156576 738.1793831621904 360.98209355691426L738.1793831621904 360.98209355691426Q739.3406306973188 361.54612807397655 740.1037362204032 362.30923359706094Q740.8668417434875 363.07233912014533 740.8668417434875 364.46583616229935L740.8668417434875 364.46583616229935Q740.8668417434875 365.62708369742774 740.2696287254215 366.82150973355976L740.2696287254215 366.82150973355976L734.8947115628273 380.3251596420526Q733.6339285246879 383.6098312414157 730.8137559393762 383.6098312414157L730.8137559393762 383.6098312414157Q729.6525084042478 383.6098312414157 728.2590113620937 383.0126182233497L728.2590113620937 383.0126182233497Q724.4103052456683 381.7518351852103 720.5615991292428 380.8560156581113Q716.7128930128173 379.9933746320159 712.6319373893662 379.9933746320159L712.6319373893662 379.9933746320159Q698.4978959618037 379.9933746320159 691.6963032560517 388.85203439999526Q684.8615320492962 397.71069416797457 684.8615320492962 410.8825590664307L684.8615320492962 410.8825590664307Q684.8615320492962 423.6231034518392 691.3313397450114 432.31587071480016Q697.8011474407266 440.97545947675746 711.4706898542378 440.97545947675746L711.4706898542378 440.97545947675746Q715.8834304877256 440.97545947675746 719.9643861111769 439.9469259456438Q724.0453417346279 438.8852139135264 728.1262973580791 437.3590028673577L728.1262973580791 437.3590028673577Q728.8230458791561 437.12675336033203 729.5529729012368 436.89450385330633Q730.2497214223139 436.66225434628063 731.0460054464019 436.66225434628063ZM753.6737431309033 411.1148085734564L753.6737431309033 411.1148085734564Q753.6737431309033 394.92370008366646 760.60804984067 382.21633419926167Q767.5755350514402 369.4757898138532 780.0506514288194 362.07698409003524Q792.5257678061985 354.67817836621737 808.849590300003 354.67817836621737L808.849590300003 354.67817836621737Q824.941163286782 354.67817836621737 836.9517806501098 361.97744858702424Q848.9955765144413 369.2435403068275 855.6976337171822 381.8513706882213Q862.399690919923 394.4592010696151 862.399690919923 410.18581054535366L862.399690919923 410.18581054535366Q862.399690919923 426.4100975361473 855.7308122181857 438.95157091553375Q849.0951120174522 451.4930442949202 837.018137652117 458.59324350970513Q824.941163286782 465.7266212254937 808.3850912859517 465.7266212254937L808.3850912859517 465.7266212254937Q791.9285547881324 465.7266212254937 779.6193309157717 458.8918500187381Q767.3432855444146 452.05707881198254 760.508514337659 439.8142119416291Q753.6737431309033 427.5713450712757 753.6737431309033 411.1148085734564ZM808.2855557829407 378.23491407882153L808.2855557829407 378.23491407882153Q799.3937175139578 378.23491407882153 793.4547658343012 382.94626122134235Q787.5158141546445 387.6907868648669 784.4633920623072 395.02323558667746Q781.4441484709733 402.38886280949174 781.4441484709733 410.41806005237936L781.4441484709733 410.41806005237936Q781.4441484709733 418.0159367822193 784.6624630683292 425.0166004939932Q787.8475991646812 432.01726420576716 793.8197293453414 436.430004839255Q799.758681024998 440.87592397374647 807.9205922719003 440.87592397374647L807.9205922719003 440.87592397374647Q816.7792520398797 440.87592397374647 822.6850252185326 436.3968263382513Q828.5576198961818 431.8845502017525 831.5436849865118 424.7843509869675Q834.529750076842 417.65097327117894 834.529750076842 409.6217760282913L834.529750076842 409.6217760282913Q834.529750076842 401.7916497914257 831.5436849865118 394.62509357463347Q828.5576198961818 387.4585373578412 822.7513822205399 382.84672571833136Q816.9119660438944 378.23491407882153 808.2855557829407 378.23491407882153ZM930.8801169914935 465.9588707325194L930.8801169914935 465.9588707325194Q930.3824394764385 465.9588707325194 930.0506544664019 465.4943717184681L930.0506544664019 465.4943717184681Q921.5237797084592 450.19908275577717 913.1959759565385 434.70472278706427Q904.868172204618 419.17718431734767 896.5735469537009 403.78235985164577L896.5735469537009 403.78235985164577Q891.3313437951214 394.0942375585748 885.9564266325273 384.3729367645001Q880.5815094699329 374.61845746942174 875.4720203153681 364.8307996733397L875.4720203153681 364.8307996733397Q875.0075213013168 363.901801645237 874.5762007882691 362.9064466151269Q874.1780587762252 361.91109158501695 874.1780587762252 360.98209355691426L874.1780587762252 360.98209355691426Q874.1780587762252 358.7591339896685 876.1687688364452 358.2282779736098Q878.1263003956616 357.6974219575511 879.6525114418304 357.6974219575511L879.6525114418304 357.6974219575511L901.1190015912034 357.6974219575511Q903.9059956755115 357.6974219575511 905.4322067216802 360.38488053884817L905.4322067216802 360.38488053884817Q907.4229167819003 363.901801645237 909.1813773350947 367.78368626266615Q910.9066593872855 371.69874938109893 912.6651199404798 375.4479199945134L912.6651199404798 375.4479199945134Q917.1110390749714 384.6383647725294 921.4574227064519 393.8619880515491Q925.836984838936 403.0856113305688 930.5151534804531 412.1765206055738L930.5151534804531 412.1765206055738Q930.747402987479 412.54148411661413 931.0460094965118 413.0391616316691Q931.3446160055449 413.5700176477278 931.8091150195962 413.5700176477278L931.8091150195962 413.5700176477278Q932.3731495366586 413.5700176477278 932.6717560456916 413.0391616316691Q932.9703625547246 412.54148411661413 933.0698980577357 412.1765206055738L933.0698980577357 412.1765206055738Q937.2835676852014 403.1851468335798 941.1322738016269 393.9283450535564Q944.9809799180524 384.6383647725294 948.9292215374888 375.5474554975244L948.9292215374888 375.5474554975244Q950.5881465876722 371.83146338511364 952.0811791328373 367.98275726868815Q953.6073901790061 364.13405115226266 955.4653862352114 360.61713004587386L955.4653862352114 360.61713004587386Q956.9915972813801 357.6974219575511 959.911305369703 357.6974219575511L959.911305369703 357.6974219575511L979.387085458856 357.6974219575511Q981.0128320080356 357.6974219575511 982.9371850662484 358.2282779736098Q984.8615381244612 358.7591339896685 984.8615381244612 360.98209355691426L984.8615381244612 360.98209355691426Q984.8615381244612 361.91109158501695 984.5297531144245 362.84008961311963Q984.1647896033841 363.7690876412223 983.7002905893328 364.698085669325L983.7002905893328 364.698085669325Q977.993588416702 376.1446685155904 971.988279735038 387.52489435984853Q965.9829710533742 398.87194170310295 960.1435548767286 410.31852454936836L960.1435548767286 410.31852454936836Q953.01017716094 424.08760246589054 946.0426919501698 437.88985888341637Q939.0420282383958 451.7252938019459 931.6764010155815 465.4943717184681L931.6764010155815 465.4943717184681Q931.3446160055449 465.9588707325194 930.8801169914935 465.9588707325194ZM1052.9770006849913 466.2906557425561L1052.9770006849913 466.2906557425561Q1035.9564296701096 466.2906557425561 1023.3154207877122 459.5222415378078Q1010.641233404311 452.7870058340633 1003.6405696925373 440.2787109556805Q996.6399059807633 427.80359457830133 996.6399059807633 410.65030955940506L996.6399059807633 410.65030955940506Q996.6399059807633 394.6914505766408 1003.3087846825005 381.984084692236Q1009.944484883234 369.2435403068275 1022.0878162505766 361.8447345830096Q1034.1979691169154 354.44592885919167 1050.5549701117238 354.44592885919167L1050.5549701117238 354.44592885919167Q1070.727498721954 354.44592885919167 1082.2072600692227 365.7597977014424Q1093.687021416492 377.07366654369315 1097.7679770399432 395.85269811176914L1097.7679770399432 395.85269811176914Q1097.9006910439575 396.18448312180584 1097.9006910439575 397.0139456468975L1097.9006910439575 397.0139456468975Q1097.9006910439575 398.77240620009195 1097.0380500178621 399.6350472261873Q1096.1422304907633 400.5308667532863 1094.748733448609 401.0949012703487L1094.748733448609 401.0949012703487Q1090.7673133281692 402.9528973265541 1086.3545726946813 404.3795728697118Q1081.9086535601896 405.77306991186583 1077.7281624337274 407.3988164610456L1077.7281624337274 407.3988164610456Q1065.4852955633742 411.9442710985481 1053.109714689006 416.32383323103227Q1040.734133814638 420.7033953635164 1028.623980948299 425.5806350110556L1028.623980948299 425.5806350110556Q1027.6618044191928 426.0451340251069 1027.6618044191928 426.77506104718765L1027.6618044191928 426.77506104718765Q1027.6618044191928 427.1068460572243 1027.927232427222 427.5713450712757L1027.927232427222 427.5713450712757Q1032.5722225677355 435.96550582520365 1040.734133814638 440.0464614486548Q1048.89604506154 444.1274170721059 1058.2523823445745 444.1274170721059L1058.2523823445745 444.1274170721059Q1065.584831066385 444.1274170721059 1071.9551032590894 441.80492200184915Q1078.2921969507897 439.4824269315924 1084.4965766384757 435.96550582520365L1084.4965766384757 435.96550582520365Q1085.2928606625637 435.5010068111523 1086.1223231876556 435.1692218011156Q1086.9186072117436 434.80425829007527 1087.748069736835 434.80425829007527L1087.748069736835 434.80425829007527Q1089.373816286015 434.80425829007527 1090.2696358131138 435.7996133201853Q1091.1322768392092 436.79496835029533 1091.7294898572754 438.08892988943836L1091.7294898572754 438.08892988943836Q1092.1939888713268 438.8852139135264 1093.5211289114736 441.73856499984186Q1094.8482689516204 444.5919160861573 1096.0758734887559 447.47844567347636Q1097.3034780258918 450.3317967597918 1097.3034780258918 451.12808078387985L1097.3034780258918 451.12808078387985Q1097.3034780258918 452.4220423230229 1096.6067295048147 453.25150484811456Q1095.9099809837376 454.04778887220266 1094.9809829556348 454.74453739327964L1094.9809829556348 454.74453739327964Q1086.686357704718 460.4844180669142 1074.874811347412 463.3709476542333Q1063.0300864891028 466.2906557425561 1052.9770006849913 466.2906557425561ZM1023.7135627997562 409.4890620242767L1023.7135627997562 409.4890620242767Q1035.4919306560582 405.4081064008255 1047.2702985123606 401.32715077737436Q1059.0486663686625 397.2461951539232 1070.727498721954 393.16523953047204L1070.727498721954 393.16523953047204Q1067.8077906336312 386.76178883676414 1062.598765976055 381.984084692236Q1057.422919819483 377.17320204670415 1049.8250430896428 377.17320204670415L1049.8250430896428 377.17320204670415Q1040.9663833216637 377.17320204670415 1035.1269671450182 381.984084692236Q1029.3207294693761 386.76178883676414 1026.5005568840643 394.1605945605821Q1023.7135627997562 401.5594002844 1023.7135627997562 409.4890620242767ZM1121.225177249536 357.6974219575511L1136.852251222264 357.6974219575511Q1141.2981703567552 357.6974219575511 1141.6299553667918 362.01062708802795L1141.6299553667918 362.01062708802795L1142.7912029019203 375.3152059904987Q1142.7912029019203 375.4479199945134 1143.023452408946 377.0073095416858Q1143.2557019159717 378.5998775898619 1143.8529149340375 378.5998775898619L1143.8529149340375 378.5998775898619Q1144.4501279521037 378.5998775898619 1145.0805194711734 377.3059160507188Q1145.710910990243 376.01195451157577 1145.8436249942579 375.7797050045501L1145.8436249942579 375.7797050045501Q1150.6213291387858 366.82150973355976 1157.4892788465454 361.67884207799125Q1164.390407055308 356.53617442242273 1174.874813372467 356.53617442242273L1174.874813372467 356.53617442242273Q1177.3300224467384 356.53617442242273 1181.1123715611566 356.9343164344667Q1184.9278991765786 357.3656369475144 1184.9278991765786 360.84937955289956L1184.9278991765786 360.84937955289956Q1184.9278991765786 362.60784010609393 1184.1979721544976 366.3238322185048Q1183.501223633421 370.0730028319192 1182.6385826073256 373.85535194633735Q1181.7759415812302 377.6377010607555 1181.3114425671788 379.62841112097556L1181.3114425671788 379.62841112097556Q1180.813765052124 381.6191211811956 1179.8515885230172 382.7140117143167Q1178.8562334929074 383.8420807484414 1176.500559921647 383.8420807484414L1176.500559921647 383.8420807484414Q1175.3393123865185 383.8420807484414 1174.2444218533974 383.67618824342304Q1173.1163528192728 383.47711723740105 1171.8555697811335 383.47711723740105L1171.8555697811335 383.47711723740105Q1162.6319465021138 383.47711723740105 1156.328031311417 389.25017641203925Q1150.02411612072 395.02323558667746 1146.8721585253716 403.4173963406054Q1143.7533794310266 411.8447355955371 1143.7533794310266 420.0066468424394L1143.7533794310266 420.0066468424394L1143.7533794310266 458.7259575137198Q1143.7533794310266 463.503661658248 1138.9424967854948 463.503661658248L1138.9424967854948 463.503661658248L1120.860213738496 463.503661658248Q1116.0825095939676 463.503661658248 1116.0825095939676 458.59324350970513L1116.0825095939676 458.59324350970513Q1116.0825095939676 440.5109604627061 1116.2815805999899 422.49503441771446Q1116.4474731050082 404.4791083727228 1116.4474731050082 386.5295393297385L1116.4474731050082 386.5295393297385L1116.4474731050082 362.4751261020793Q1116.4474731050082 357.6974219575511 1121.225177249536 357.6974219575511L1121.225177249536 357.6974219575511ZM1257.9206013846479 465.7266212254937L1257.9206013846479 465.7266212254937Q1249.0619416166687 465.7266212254937 1240.9663873717736 462.90644864018196Q1232.837654625875 460.11945455587386 1225.969704918116 454.2800383792283L1225.969704918116 454.2800383792283Q1225.6047414070754 454.04778887220266 1225.2065993950314 453.6496468601586Q1224.8084573829874 453.25150484811456 1224.2112443649212 453.25150484811456L1224.2112443649212 453.25150484811456Q1223.647209847859 453.25150484811456 1223.5144958438445 454.11414587420995Q1223.4149603408332 454.97678690030534 1223.4149603408332 455.3417504113457L1223.4149603408332 455.3417504113457Q1223.1827108338075 462.90644864018196 1223.1827108338075 470.67021787504024Q1223.1827108338075 478.4339871098985 1222.9504613267818 486.03186383973843L1222.9504613267818 486.03186383973843Q1222.9504613267818 488.8188579240466 1222.9836398277857 491.80492301437664Q1223.0499968297931 494.7578096037031 1222.8177473227674 497.57798218901485L1222.8177473227674 497.57798218901485Q1222.5854978157417 499.9004772592716 1221.5901427856315 501.0617247944Q1220.5947877555213 502.2229723295284 1218.040043178239 502.2229723295284L1218.040043178239 502.2229723295284L1199.2610116101632 502.2229723295284Q1194.5828429686458 502.2229723295284 1194.5828429686458 497.3457326819892L1194.5828429686458 497.3457326819892Q1194.5828429686458 488.3543589099952 1195.0141634816937 479.26344963499025Q1195.4123054937377 470.13936185898154 1195.6445550007634 461.28070209100224L1195.6445550007634 461.28070209100224Q1196.1090540148148 442.26942101590055 1196.3413035218405 423.32449694280615Q1196.5735530288662 404.3795728697118 1196.5735530288662 385.3682917946101L1196.5735530288662 385.3682917946101Q1196.5735530288662 379.62841112097556 1196.5071960268588 373.9217089483447Q1196.4740175258548 368.21500677571385 1196.4740175258548 362.4751261020793L1196.4740175258548 362.4751261020793Q1196.4740175258548 357.6974219575511 1201.2517216703832 357.6974219575511L1201.2517216703832 357.6974219575511L1216.2815826250448 357.6974219575511Q1219.8980392344447 357.6974219575511 1220.7938587615436 360.61713004587386Q1221.656499787639 363.5368381341966 1221.7560352906498 366.39018922051207Q1221.8887492946646 369.2435403068275 1223.1827108338075 369.2435403068275L1223.1827108338075 369.2435403068275Q1223.647209847859 369.2435403068275 1224.4434938719469 368.6795057897652L1224.4434938719469 368.6795057897652Q1232.9703686298894 362.1433410920426 1242.1939919089095 358.5268844826428Q1251.3844366869253 354.910427873243 1262.2338065151248 354.910427873243L1262.2338065151248 354.910427873243Q1278.6903430129441 354.910427873243 1289.9046763521837 362.60784010609393Q1301.0858311904199 370.3052523389449 1306.7925333630506 383.1453322273644Q1312.5324140366852 395.9522336147802 1312.5324140366852 411.24752257747105L1312.5324140366852 411.24752257747105Q1312.5324140366852 427.936308582316 1305.7971783329403 440.1791754526695Q1299.0951211301995 452.4220423230229 1286.8522542598462 459.0577425237565Q1274.609387389493 465.7266212254937 1257.9206013846479 465.7266212254937ZM1252.4461487190429 441.80492200184915L1252.4461487190429 441.80492200184915Q1261.304808487022 441.80492200184915 1268.6040787078286 437.723966378398Q1275.9033489286358 433.6430107549469 1280.28291106112 426.5759900411656Q1284.6292946926005 419.542147828388 1284.6292946926005 410.65030955940506L1284.6292946926005 410.65030955940506Q1284.6292946926005 396.7816961398719 1275.67109942161 387.8566793698852Q1266.679725649616 378.9316625998986 1252.811112230083 378.9316625998986L1252.811112230083 378.9316625998986Q1242.8907404299862 378.9316625998986 1235.1933281971355 383.9416162514524Q1227.4959159642844 388.9847484040099 1223.9789948578955 398.3079071860406L1223.9789948578955 398.3079071860406Q1223.9789948578955 404.14732336268617 1223.945816356892 409.953561038328Q1223.8794593548846 415.7929772149736 1223.8794593548846 421.63239339161913L1223.8794593548846 421.63239339161913Q1223.8794593548846 422.19642790868147 1224.642564877969 424.08760246589054Q1225.3724919000497 425.9455985220959 1225.6047414070754 426.54281154016195L1225.6047414070754 426.54281154016195Q1229.35391202049 434.1075097689982 1236.819074746315 437.9562158854237Q1244.2842374721404 441.80492200184915 1252.4461487190429 441.80492200184915ZM1372.1210018392726 465.7266212254937L1372.1210018392726 465.7266212254937Q1356.9584268805966 465.7266212254937 1346.7062700704632 458.49370800669413Q1336.420934759326 451.2607947878945 1331.2450886027536 439.3165344265741Q1326.0360639451778 427.33909556425 1326.0360639451778 413.33776814070217L1326.0360639451778 413.33776814070217L1326.0360639451778 411.47977208449674Q1326.2683134522035 396.7816961398719 1332.1740866308564 383.8420807484414Q1338.0798598095093 370.9024653570109 1349.2610146477455 362.9064466151269Q1360.475347986985 354.910427873243 1376.3346714667382 354.910427873243L1376.3346714667382 354.910427873243Q1386.1223292628206 354.910427873243 1394.5828470187557 358.5932414846501Q1403.0433647746913 362.2428765950536 1410.375813496502 368.5467917857505L1410.375813496502 368.5467917857505Q1411.2052760215934 369.3762543108422 1411.7693105386556 369.3762543108422L1411.7693105386556 369.3762543108422Q1413.1959860818133 369.3762543108422 1413.129629079806 366.4565462225194Q1413.063272077799 363.5368381341966 1413.9259131038943 360.61713004587386Q1414.8217326309932 357.6974219575511 1418.537724743404 357.6974219575511L1418.537724743404 357.6974219575511L1434.9942612412233 357.6974219575511Q1439.7719653857516 357.6974219575511 1439.7719653857516 362.4751261020793L1439.7719653857516 362.4751261020793Q1439.7719653857516 367.5182582546368 1439.7056083837442 372.5282119061907Q1439.6724298827403 377.5381655577445 1439.6724298827403 382.54811920929836L1439.6724298827403 382.54811920929836Q1439.6724298827403 395.3881990977178 1439.8383223877586 408.3278144891483Q1440.0042148927773 421.2674298805788 1440.1369288967917 434.1075097689982L1440.1369288967917 434.1075097689982Q1440.2364643998026 440.1791754526695 1440.4355354058248 446.28401963734433Q1440.601427910843 452.4220423230229 1440.601427910843 458.59324350970513L1440.601427910843 458.59324350970513Q1440.601427910843 463.503661658248 1435.8237237663152 463.503661658248L1435.8237237663152 463.503661658248L1417.5091912122903 463.503661658248Q1414.3572336169418 463.503661658248 1413.428235588839 461.44659459602053Q1412.4992375607362 459.4227060347968 1412.5987730637476 456.6357119504887Q1412.7314870677624 453.81553936517696 1412.5987730637476 451.5925797979312L1412.5987730637476 451.5925797979312Q1412.5987730637476 451.2607947878945 1412.4992375607362 450.4313322628028Q1412.3665235567219 449.63504823871483 1411.7693105386556 449.63504823871483L1411.7693105386556 449.63504823871483Q1411.3048115246042 449.63504823871483 1410.9066695125603 449.96683324875147Q1410.5085275005163 450.3317967597918 1410.1435639894762 450.5640462668175L1410.1435639894762 450.5640462668175Q1401.9816527425737 457.43199597457675 1392.5257799565284 461.57930860003523Q1383.103085671487 465.7266212254937 1372.1210018392726 465.7266212254937ZM1384.0320836995893 440.87592397374647L1384.0320836995893 440.87592397374647Q1392.2935304495027 440.87592397374647 1399.360551163284 437.425359869365Q1406.4275718770655 434.00797426598723 1410.375813496502 426.54281154016195L1410.375813496502 426.54281154016195Q1410.6080630035271 426.0451340251069 1411.5038825306265 424.1207809668942Q1412.3665235567219 422.19642790868147 1412.3665235567219 421.73192889463013L1412.3665235567219 421.73192889463013Q1412.3665235567219 417.65097327117894 1412.3001665547145 413.5700176477278Q1412.233809552707 409.4890620242767 1412.233809552707 405.5408204048402L1412.233809552707 405.5408204048402Q1412.233809552707 403.6496458476311 1412.3665235567219 401.3935077793817Q1412.4992375607362 399.10419121012865 1412.233809552707 397.37890915793787L1412.233809552707 397.37890915793787Q1412.1342740496962 396.5494466328462 1411.3711685266117 394.92370008366646Q1410.6080630035271 393.29795353448674 1410.2762779934906 392.56802651240605L1410.2762779934906 392.56802651240605Q1406.1953223700398 385.23557779059547 1398.7301596442144 381.6191211811956Q1391.264996918389 378.00266457179583 1383.103085671487 378.00266457179583L1383.103085671487 378.00266457179583Q1374.4434969095296 378.00266457179583 1367.9405107128105 382.31586970227266Q1361.4043460150879 386.6290748327495 1357.7215324036806 393.6960955465307Q1354.0387187922738 400.763116260312 1354.0387187922738 409.15727701424L1354.0387187922738 409.15727701424Q1354.0387187922738 417.55143776816794 1357.8874249086994 424.7843509869675Q1361.7361310251245 432.01726420576716 1368.5709022318802 436.430004839255Q1375.4056734386359 440.87592397374647 1384.0320836995893 440.87592397374647ZM1511.03938554163 504.44593189677414L1511.03938554163 504.44593189677414Q1485.4919397688059 504.44593189677414 1468.4713687539243 486.26411334676413L1468.4713687539243 486.26411334676413Q1467.874155735858 485.53418632468345 1467.4096567218066 484.83743780360646Q1466.9451577077552 484.14068928252937 1466.9451577077552 483.2116912544267L1466.9451577077552 483.2116912544267Q1466.9451577077552 482.05044371929836 1468.7699752629574 479.4956991420159Q1470.561614317155 476.9077760637298 1472.7182168823938 474.28667448444Q1474.874819447632 471.66557290515027 1475.704281972724 470.7365748770476L1475.704281972724 470.7365748770476Q1476.5337444978154 469.9071123519559 1477.3300285219034 469.2767208328862Q1478.1594910469953 468.6463293138165 1479.3207385821238 468.6463293138165L1479.3207385821238 468.6463293138165Q1480.2497366102261 468.6463293138165 1481.0128421333106 468.97811432385316Q1481.7759476563951 469.3430778348935 1482.4726961774718 469.8075768489449L1482.4726961774718 469.8075768489449Q1488.6438973641543 473.42403345834464 1494.8814555528438 475.3483865165574Q1501.1190137415333 477.2727395747701 1508.351926960333 477.2727395747701L1508.351926960333 477.2727395747701Q1514.8880916580556 477.2727395747701 1521.4242563557782 475.51427902157576Q1527.9604210535008 473.75581846838134 1532.406340187992 469.40943483690086Q1536.81908082148 465.0298727044167 1536.81908082148 457.1997464675511L1536.81908082148 457.1997464675511Q1536.81908082148 456.6357119504887 1536.8854378234873 454.2800383792283Q1536.9517948254947 451.95754330897154 1536.2550463044176 451.95754330897154L1536.2550463044176 451.95754330897154Q1535.7905472903662 451.95754330897154 1535.3592267773188 452.4220423230229Q1534.9610847652748 452.8865413370743 1534.7288352582486 453.1187908440999L1534.7288352582486 453.1187908440999Q1522.718217894921 465.59390722147907 1505.1999693649846 465.59390722147907L1505.1999693649846 465.59390722147907Q1490.767321428389 465.59390722147907 1480.2497366102261 457.8964949886281Q1469.765330293067 450.19908275577717 1464.09180662144 438.022572887431Q1458.4514614508166 425.81288451808126 1458.4514614508166 412.4087701125994L1458.4514614508166 412.4087701125994L1458.4514614508166 410.08627504234266Q1458.4514614508166 400.3981527492717 1461.702954549176 390.7100304562006Q1464.9876261485392 381.02190816312964 1471.092470333214 372.8599969162273Q1477.2304930188925 364.698085669325 1485.790546277839 359.8208460217859Q1494.350599536785 354.910427873243 1504.868184354948 354.910427873243L1504.868184354948 354.910427873243Q1513.1628096058648 354.910427873243 1520.860221838716 357.1333874404887Q1528.5576340715666 359.3563470077345 1534.9610847652748 364.698085669325L1534.9610847652748 364.698085669325Q1535.657833286352 365.39483419040204 1536.4872958114433 365.39483419040204L1536.4872958114433 365.39483419040204Q1537.6485433465718 365.39483419040204 1537.7480788495827 363.4704811321893Q1537.8807928535975 361.54612807397655 1538.5775413746742 359.62177501576383Q1539.2742898957513 357.6974219575511 1541.9617484770483 357.6974219575511L1541.9617484770483 357.6974219575511L1559.3472830029705 357.6974219575511Q1564.1249871474988 357.6974219575511 1564.1249871474988 362.4751261020793L1564.1249871474988 362.4751261020793Q1564.1249871474988 368.21500677571385 1564.0586301454914 374.05442295235935Q1563.992273143484 379.86066062800126 1563.992273143484 385.7000768046468L1563.992273143484 385.7000768046468Q1563.992273143484 403.3178608375944 1564.4235936565315 420.9356448705421Q1564.8217356685755 438.5534289034897 1564.8217356685755 456.27074843944837L1564.8217356685755 456.27074843944837Q1564.8217356685755 470.96882438407323 1557.1906804377318 481.8181942122726Q1549.5264467058846 492.66756404047203 1537.2835798355313 498.54015871812123Q1525.040712965178 504.44593189677414 1511.03938554163 504.44593189677414ZM1512.8973815978356 440.87592397374647L1512.8973815978356 440.87592397374647Q1521.7892198668187 440.87592397374647 1527.728171546475 435.2687573041266Q1533.6671232261315 429.66159063450675 1536.5868313144542 421.8646428986448L1536.5868313144542 421.8646428986448L1536.5868313144542 397.47844466094887Q1536.5868313144542 397.0139456468975 1535.7905472903662 395.0895925886848Q1534.9610847652748 393.16523953047204 1534.7288352582486 392.8334545204354L1534.7288352582486 392.8334545204354Q1531.2119141518601 385.93232631167245 1525.1734269691929 381.984084692236Q1519.1017612855212 378.00266457179583 1511.4043490526706 378.00266457179583L1511.4043490526706 378.00266457179583Q1502.8774742947276 378.00266457179583 1497.2703076251078 382.38222670428Q1491.696319456492 386.76178883676414 1488.9425038731874 393.62973854452343Q1486.188688289883 400.5308667532863 1486.188688289883 408.2282789861373L1486.188688289883 408.2282789861373Q1486.188688289883 415.7929772149736 1489.3406458852314 423.3908539448135Q1492.4926034805799 430.9555521736498 1498.4647336612397 435.93232732419995Q1504.4036853408966 440.87592397374647 1512.8973815978356 440.87592397374647ZM1639.008863912777 466.2906557425561L1639.008863912777 466.2906557425561Q1621.9882928978955 466.2906557425561 1609.3141055144943 459.5222415378078Q1596.673096632097 452.7870058340633 1589.672432920323 440.2787109556805Q1582.671769208549 427.80359457830133 1582.671769208549 410.65030955940506L1582.671769208549 410.65030955940506Q1582.671769208549 394.6914505766408 1589.3074694092825 381.984084692236Q1595.97634811102 369.2435403068275 1608.0865009773588 361.8447345830096Q1620.2298323447012 354.44592885919167 1636.5536548385057 354.44592885919167L1636.5536548385057 354.44592885919167Q1656.7261834487358 354.44592885919167 1668.2391232970085 365.7597977014424Q1679.7188846442773 377.07366654369315 1683.7998402677285 395.85269811176914L1683.7998402677285 395.85269811176914Q1683.8993757707399 396.18448312180584 1683.8993757707399 397.0139456468975L1683.8993757707399 397.0139456468975Q1683.8993757707399 398.77240620009195 1683.0367347446445 399.6350472261873Q1682.174093718549 400.5308667532863 1680.747418175391 401.0949012703487L1680.747418175391 401.0949012703487Q1676.799176555955 402.9528973265541 1672.3532574214632 404.3795728697118Q1667.9405167879754 405.77306991186583 1663.7268471605094 407.3988164610456L1663.7268471605094 407.3988164610456Q1651.483980290156 411.9442710985481 1639.108399415788 416.32383323103227Q1626.7659970424238 420.7033953635164 1614.622665675081 425.5806350110556L1614.622665675081 425.5806350110556Q1613.6936676469786 426.0451340251069 1613.6936676469786 426.77506104718765L1613.6936676469786 426.77506104718765Q1613.6936676469786 427.1068460572243 1613.9259171540043 427.5713450712757L1613.9259171540043 427.5713450712757Q1618.6040857955213 435.96550582520365 1626.7659970424238 440.0464614486548Q1634.9279082893258 444.1274170721059 1644.2510670713564 444.1274170721059L1644.2510670713564 444.1274170721059Q1651.6166942941709 444.1274170721059 1657.9537879858713 441.80492200184915Q1664.3240601785756 439.4824269315924 1670.495261365258 435.96550582520365L1670.495261365258 435.96550582520365Q1671.3247238903496 435.5010068111523 1672.1210079144375 435.1692218011156Q1672.9504704395295 434.80425829007527 1673.779932964621 434.80425829007527L1673.779932964621 434.80425829007527Q1675.4056795138008 434.80425829007527 1676.2683205398962 435.7996133201853Q1677.1309615659916 436.79496835029533 1677.7281745840578 438.08892988943836L1677.7281745840578 438.08892988943836Q1678.1926735981087 438.8852139135264 1679.552992139259 441.73856499984186Q1680.8801321794058 444.5919160861573 1682.1077367165417 447.47844567347636Q1683.3353412536776 450.3317967597918 1683.3353412536776 451.12808078387985L1683.3353412536776 451.12808078387985Q1683.3353412536776 452.4220423230229 1682.6385927326 453.25150484811456Q1681.9418442115234 454.04778887220266 1680.9796676824167 454.74453739327964L1680.9796676824167 454.74453739327964Q1672.7182209325038 460.4844180669142 1660.873496074194 463.3709476542333Q1649.0287712158847 466.2906557425561 1639.008863912777 466.2906557425561ZM1609.7122475265387 409.4890620242767L1609.7122475265387 409.4890620242767Q1621.523793883844 405.4081064008255 1633.302161740146 401.32715077737436Q1645.0805295964483 397.2461951539232 1656.7261834487358 393.16523953047204L1656.7261834487358 393.16523953047204Q1653.806475360413 386.76178883676414 1648.6306292038407 381.984084692236Q1643.421604546265 377.17320204670415 1635.8569063174286 377.17320204670415L1635.8569063174286 377.17320204670415Q1626.9982465494495 377.17320204670415 1621.1588303728035 381.984084692236Q1615.3194141961585 386.76178883676414 1612.5324201118501 394.1605945605821Q1609.7122475265387 401.5594002844 1609.7122475265387 409.4890620242767Z " fill="#c5fad9" transform="matrix(0.5196272426794071,0,0,0.5196272426794071,0,76.84819153717542)"/></g></svg>